<svg width="32" height="32" viewBox="0 0 32 32" fill="none" xmlns="http://www.w3.org/2000/svg">
<path d="M16.9917 32C16.324 32 15.6563 32 14.9886 32C14.8968 31.9833 14.805 31.9583 14.7215 31.9416C14.0621 31.8498 13.3944 31.7997 12.7434 31.6578C4.6474 29.9802 -0.877909 22.3349 0.115311 14.1471C0.641133 9.78192 2.64427 6.20967 6.07463 3.4804C9.7387 0.567508 13.9369 -0.492483 18.5525 0.208614C21.6073 0.676011 24.3031 1.98639 26.6067 4.04795C29.3694 6.51848 31.0887 9.58161 31.7398 13.2373C31.8399 13.8216 31.9067 14.4058 31.9818 14.9984C31.9818 15.6661 31.9818 16.3338 31.9818 17.0015C31.9651 17.085 31.9401 17.1601 31.9317 17.2436C31.7398 19.7141 31.0387 22.0261 29.745 24.1377C27.2077 28.2942 23.5353 30.8565 18.7444 31.758C18.1685 31.8581 17.576 31.9165 16.9917 32ZM13.5113 16.5592C13.5113 19.664 13.5113 22.7355 13.5113 25.8153C14.805 25.8153 16.0736 25.8153 17.3756 25.8153C17.3756 22.7272 17.3756 19.6557 17.3756 16.5508C18.2604 16.5508 19.1117 16.5508 19.9714 16.5508C20.0799 15.4575 20.1967 14.3808 20.3052 13.2791C19.3037 13.2791 18.3522 13.2791 17.3756 13.2791C17.3756 12.5529 17.3506 11.8602 17.384 11.1674C17.409 10.7167 17.7095 10.483 18.1936 10.4663C18.6944 10.4496 19.1952 10.4663 19.6959 10.4663C19.8796 10.4663 20.0548 10.4663 20.2301 10.4663C20.2301 9.37295 20.2301 8.33799 20.2301 7.30304C19.1033 7.30304 18.0016 7.24462 16.8999 7.31974C15.0303 7.43658 13.8284 8.56335 13.5864 10.4162C13.4779 11.2342 13.528 12.0772 13.5113 12.9118C13.5113 13.0287 13.5113 13.1539 13.5113 13.3124C12.8769 13.3124 12.2927 13.3124 11.7001 13.3124C11.7001 14.4225 11.7001 15.4825 11.7001 16.5759C12.2927 16.5592 12.8769 16.5592 13.5113 16.5592Z" fill="white"/>
</svg>
