<svg width="32" height="32" viewBox="0 0 32 32" fill="none" xmlns="http://www.w3.org/2000/svg">
<path d="M0 16.9932C0 16.3255 0 15.6578 0 14.9901C0.041732 14.6896 0.0751175 14.3975 0.116849 14.097C0.567555 10.4246 2.06991 7.23625 4.72406 4.66557C8.84718 0.67599 13.7882 -0.767937 19.4221 0.383865C26.5916 1.84448 31.9166 8.38806 31.9917 15.6995C32.0251 19.0214 31.1821 22.0845 29.3209 24.8388C26.7752 28.603 23.2614 30.915 18.7877 31.7496C18.1951 31.8581 17.5942 31.9165 17.0016 32C16.3339 32 15.6662 32 14.9985 32C14.9317 31.9833 14.8566 31.9583 14.7898 31.9499C12.0105 31.7413 9.45646 30.8816 7.15286 29.3208C3.39698 26.7668 1.08503 23.253 0.250392 18.7877C0.141889 18.1951 0.0834639 17.5941 0 16.9932ZM20.9161 12.3526C20.7658 12.5028 20.649 12.628 20.5238 12.7449C18.2035 14.8398 15.8915 16.9348 13.5629 19.0214C13.3876 19.1799 13.3041 19.3385 13.2958 19.5806C13.2875 20.0396 13.2374 20.4903 13.204 20.9494C13.1539 21.7256 13.0955 22.5018 13.0454 23.2864C13.3709 23.3198 13.5879 23.1612 13.7882 22.9692C14.4476 22.3349 15.107 21.7006 15.7747 21.0579C15.8581 21.108 15.9249 21.158 15.9917 21.2081C17.1936 22.0928 18.3871 22.9776 19.589 23.8539C20.4403 24.4799 21.0246 24.2545 21.2499 23.2279C21.8509 20.4069 22.4518 17.5941 23.0444 14.773C23.3115 13.5127 23.5869 12.2524 23.8456 10.9921C23.9291 10.5748 23.9959 10.1241 23.6119 9.7986C23.2447 9.48143 22.8524 9.65671 22.4685 9.80694C18.6542 11.2759 14.8482 12.7449 11.0339 14.2222C9.72355 14.7313 8.41316 15.2321 7.11113 15.7496C6.82735 15.8664 6.49349 16.025 6.52688 16.4006C6.56026 16.7511 6.90247 16.843 7.18624 16.9348C8.38812 17.3104 9.59 17.6776 10.7835 18.0615C11.0005 18.1366 11.1675 18.1033 11.3594 17.9864C13.446 16.6677 15.5326 15.3573 17.6192 14.0386C18.4789 13.496 19.3469 12.9535 20.2066 12.411C20.4069 12.2942 20.6072 12.1606 20.9161 12.3526Z" fill="white"/>
</svg>
