<svg width="32" height="32" viewBox="0 0 32 32" fill="none" xmlns="http://www.w3.org/2000/svg">
<path d="M0 17.0075C0 16.3412 0 15.6749 0 15.0085C0.0383141 14.722 0.0791269 14.4355 0.114109 14.1481C0.515574 10.8065 1.81492 7.85463 4.06795 5.35839C9.42609 -0.577794 18.0634 -1.72888 24.7501 2.64392C28.5881 5.15433 30.9053 8.73169 31.739 13.2511C31.8465 13.8325 31.904 14.4222 31.9839 15.0085C31.9839 15.654 31.9839 16.2996 31.9839 16.9451C31.9664 17.0458 31.9448 17.1458 31.9314 17.2466C31.8448 17.8746 31.789 18.5084 31.6691 19.129C30.423 25.5716 25.219 30.654 18.7464 31.7543C18.1642 31.8534 17.577 31.9184 16.9923 32C16.326 32 15.6596 32 14.9933 32C14.9242 31.9825 14.8567 31.9534 14.7867 31.9484C13.4316 31.8509 12.1047 31.6027 10.8304 31.1313C5.02081 28.9799 1.49675 24.8586 0.253206 18.7933C0.132433 18.2053 0.0824585 17.6031 0 17.0075ZM15.9761 22.015V22.02C16.8399 22.02 17.7036 22.02 18.5673 22.02C19.4311 22.0192 20.2948 22.0275 21.1585 22.015C23.0392 21.9892 24.3911 20.6549 24.4077 18.7858C24.4244 16.9334 24.4244 15.081 24.4077 13.2286C24.3911 11.3829 23.0634 10.016 21.221 10.0036C17.7244 9.9794 14.2278 9.9819 10.7313 10.0069C8.95216 10.0202 7.6145 11.352 7.58202 13.1345C7.54704 15.0485 7.54704 16.9642 7.58202 18.8783C7.6145 20.649 8.93134 21.9692 10.6996 22.0059C12.4579 22.0442 14.217 22.015 15.9761 22.015Z" fill="white"/>
<path d="M18.2124 16.0139C16.709 16.8859 15.2681 17.7222 13.7897 18.5801C13.7897 16.8526 13.7897 15.1751 13.7897 13.4377C15.2697 14.2989 16.714 15.141 18.2124 16.0139Z" fill="white"/>
</svg>
