<svg width="184" height="44" viewBox="0 0 184 44" fill="none" xmlns="http://www.w3.org/2000/svg">
<path d="M60.4862 4.20773V7.48023H67.32V11.0415H60.4862V14.314H68.09V17.8752H56.7325V0.646484H68.09V4.20773H60.4862Z" fill="#939AA3"/>
<path d="M70.6816 17.8752V0.646484H74.291V17.8752H70.6816Z" fill="#939AA3"/>
<path d="M88.2673 15.0118C87.6898 16.0224 86.9279 16.8165 85.9814 17.394C85.051 17.9715 83.92 18.2602 82.5886 18.2602C81.6742 18.2602 80.824 18.1078 80.038 17.803C79.268 17.4822 78.5942 17.0411 78.0167 16.4796C77.4392 15.9182 76.99 15.2604 76.6692 14.5065C76.3484 13.7365 76.188 12.8943 76.188 11.9799C76.188 11.1297 76.3484 10.3276 76.6692 9.57367C76.99 8.80367 77.4312 8.13794 77.9926 7.57648C78.5701 6.99898 79.2359 6.5418 79.9898 6.20492C80.7598 5.86805 81.594 5.69961 82.4923 5.69961C83.4709 5.69961 84.3291 5.86003 85.067 6.18086C85.821 6.50169 86.4466 6.94284 86.9439 7.5043C87.4412 8.04971 87.8182 8.6994 88.0748 9.45336C88.3315 10.1913 88.4598 10.9853 88.4598 11.8355C88.4598 11.9639 88.4518 12.0922 88.4358 12.2205C88.4358 12.3489 88.4277 12.4612 88.4117 12.5574C88.3957 12.6697 88.3876 12.774 88.3876 12.8702H79.7011C79.8775 13.6402 80.2385 14.2017 80.7839 14.5546C81.3293 14.9075 81.9389 15.084 82.6126 15.084C83.2864 15.084 83.8398 14.9396 84.273 14.6509C84.7221 14.3621 85.075 13.9932 85.3317 13.544L88.2673 15.0118ZM85.067 10.4159C85.0349 10.2234 84.9547 10.0148 84.8264 9.79023C84.7141 9.56565 84.5457 9.36513 84.3211 9.18867C84.1125 8.99617 83.8478 8.84378 83.527 8.73148C83.2222 8.60315 82.8773 8.53898 82.4923 8.53898C81.9309 8.53898 81.4095 8.6994 80.9283 9.02023C80.447 9.34107 80.0941 9.80628 79.8695 10.4159H85.067Z" fill="#939AA3"/>
<path d="M90.4909 0.646484H94.1002V9.40523H94.3409L97.7096 6.08461H102.113V6.32523L97.854 10.4159L102.546 17.6346V17.8752H98.3112L95.3034 12.8943L94.1002 14.0493V17.8752H90.4909V0.646484Z" fill="#939AA3"/>
<path d="M105.09 9.11648H103.021V6.08461H105.09V2.47523H108.7V6.08461H111.611V9.11648H108.7V13.0868C108.7 13.3435 108.732 13.5841 108.796 13.8087C108.86 14.0172 108.972 14.1937 109.133 14.338C109.374 14.5466 109.686 14.6509 110.071 14.6509C110.328 14.6509 110.545 14.6188 110.721 14.5546C110.897 14.4904 111.05 14.4102 111.178 14.314L112.189 17.4421C111.772 17.6346 111.323 17.787 110.841 17.8993C110.36 18.0116 109.847 18.0677 109.301 18.0677C108.034 18.0677 107.031 17.6988 106.294 16.9609C105.909 16.5759 105.612 16.1026 105.403 15.5412C105.195 14.9637 105.09 14.33 105.09 13.6402V9.11648Z" fill="#939AA3"/>
<path d="M114.013 6.08461H117.382V7.57648H117.622C117.943 7.06315 118.4 6.63003 118.994 6.27711C119.587 5.92419 120.245 5.74773 120.967 5.74773C121.4 5.74773 121.777 5.80388 122.098 5.91617C122.419 6.01242 122.683 6.12471 122.892 6.25305L121.954 9.4293C121.745 9.31701 121.52 9.22878 121.28 9.16461C121.055 9.10044 120.758 9.06836 120.389 9.06836C119.491 9.06836 118.801 9.38117 118.32 10.0068C117.855 10.6324 117.622 11.4505 117.622 12.4612V17.8752H114.013V6.08461Z" fill="#939AA3"/>
<path d="M129.279 5.69961C130.193 5.69961 131.036 5.86003 131.806 6.18086C132.592 6.48565 133.265 6.91878 133.827 7.48023C134.404 8.02565 134.845 8.68336 135.15 9.45336C135.471 10.2234 135.632 11.0655 135.632 11.9799C135.632 12.8943 135.471 13.7365 135.15 14.5065C134.845 15.2765 134.404 15.9422 133.827 16.5037C133.265 17.0491 132.592 17.4822 131.806 17.803C131.036 18.1078 130.193 18.2602 129.279 18.2602C128.365 18.2602 127.514 18.1078 126.728 17.803C125.958 17.4822 125.285 17.0491 124.707 16.5037C124.146 15.9422 123.705 15.2765 123.384 14.5065C123.079 13.7365 122.927 12.8943 122.927 11.9799C122.927 11.0655 123.079 10.2234 123.384 9.45336C123.705 8.68336 124.146 8.02565 124.707 7.48023C125.285 6.91878 125.958 6.48565 126.728 6.18086C127.514 5.86003 128.365 5.69961 129.279 5.69961ZM129.279 14.8915C129.648 14.8915 129.993 14.8273 130.314 14.699C130.651 14.5546 130.947 14.3621 131.204 14.1215C131.461 13.8648 131.661 13.56 131.806 13.2071C131.95 12.8382 132.022 12.4291 132.022 11.9799C132.022 11.5308 131.95 11.1297 131.806 10.7768C131.661 10.4239 131.461 10.1191 131.204 9.86242C130.947 9.60576 130.651 9.41325 130.314 9.28492C129.993 9.14055 129.648 9.06836 129.279 9.06836C128.91 9.06836 128.557 9.14055 128.22 9.28492C127.899 9.41325 127.611 9.60576 127.354 9.86242C127.097 10.1191 126.897 10.4239 126.752 10.7768C126.608 11.1297 126.536 11.5308 126.536 11.9799C126.536 12.4291 126.608 12.8382 126.752 13.2071C126.897 13.56 127.097 13.8648 127.354 14.1215C127.611 14.3621 127.899 14.5546 128.22 14.699C128.557 14.8273 128.91 14.8915 129.279 14.8915Z" fill="#939AA3"/>
<path d="M137.417 6.08461H140.786V7.57648H141.027C141.412 6.98294 141.901 6.52575 142.495 6.20492C143.104 5.86805 143.818 5.69961 144.636 5.69961C145.535 5.69961 146.28 5.91617 146.874 6.3493C147.468 6.76638 147.885 7.25565 148.125 7.81711C148.478 7.25565 148.983 6.76638 149.641 6.3493C150.299 5.91617 151.125 5.69961 152.12 5.69961C152.825 5.69961 153.443 5.81992 153.972 6.06055C154.502 6.28513 154.935 6.60596 155.272 7.02305C155.625 7.44013 155.889 7.93742 156.066 8.51492C156.242 9.09242 156.331 9.72607 156.331 10.4159V17.8752H152.721V11.1137C152.721 10.5041 152.577 10.0148 152.288 9.64586C152.015 9.26086 151.606 9.06836 151.061 9.06836C150.275 9.06836 149.681 9.38919 149.28 10.0309C148.879 10.6565 148.679 11.4987 148.679 12.5574V17.8752H145.069V11.1137C145.069 10.5041 144.917 10.0148 144.612 9.64586C144.323 9.26086 143.866 9.06836 143.241 9.06836C142.503 9.06836 141.949 9.38919 141.58 10.0309C141.211 10.6565 141.027 11.4987 141.027 12.5574V17.8752H137.417V6.08461Z" fill="#939AA3"/>
<path d="M165.875 16.8165H165.635C165.25 17.2336 164.809 17.5785 164.311 17.8512C163.83 18.1239 163.205 18.2602 162.435 18.2602C161.841 18.2602 161.28 18.164 160.75 17.9715C160.237 17.779 159.78 17.5063 159.379 17.1534C158.994 16.8004 158.689 16.3753 158.464 15.878C158.24 15.3808 158.127 14.8273 158.127 14.2177C158.127 13.6242 158.248 13.0868 158.488 12.6055C158.729 12.1083 159.058 11.6832 159.475 11.3302C159.892 10.9773 160.381 10.7046 160.943 10.5121C161.52 10.3196 162.146 10.2234 162.82 10.2234C163.541 10.2234 164.135 10.2715 164.6 10.3677C165.081 10.464 165.507 10.5763 165.875 10.7046V10.3918C165.875 9.87846 165.659 9.44534 165.226 9.09242C164.809 8.72346 164.239 8.53898 163.517 8.53898C162.475 8.53898 161.576 8.96409 160.822 9.8143L158.368 8.0818C159.042 7.27971 159.82 6.68617 160.702 6.30117C161.6 5.90013 162.587 5.69961 163.662 5.69961C165.587 5.69961 167.038 6.13273 168.017 6.99898C168.996 7.84919 169.485 9.14857 169.485 10.8971V17.8752H165.875V16.8165ZM165.875 13.2312C165.507 13.0868 165.138 12.9745 164.769 12.8943C164.416 12.8141 164.047 12.774 163.662 12.774C163.02 12.774 162.539 12.9103 162.218 13.183C161.897 13.4397 161.737 13.7766 161.737 14.1937C161.737 14.6108 161.889 14.9476 162.194 15.2043C162.499 15.4449 162.9 15.5652 163.397 15.5652C163.798 15.5652 164.151 15.5011 164.456 15.3727C164.777 15.2284 165.041 15.0439 165.25 14.8193C165.458 14.5947 165.611 14.3461 165.707 14.0734C165.819 13.7846 165.875 13.5039 165.875 13.2312Z" fill="#939AA3"/>
<path d="M174.778 11.8837L170.735 6.08461H175.067L176.847 8.92398H177.088L178.724 6.08461H183.2L179.061 11.8837L183.176 17.8752H178.893L177.04 15.0118H176.799L174.994 17.8752H170.711L174.778 11.8837Z" fill="#939AA3"/>
<path d="M56.7325 25.3965H60.4862V42.6252H56.7325V25.3965Z" fill="#939AA3"/>
<path d="M66.9303 32.3265H67.1709C67.973 31.0752 69.1761 30.4496 70.7803 30.4496C72.2561 30.4496 73.355 30.9228 74.0768 31.8693C74.7987 32.8158 75.1597 34.059 75.1597 35.599V42.6252H71.5503V36.008C71.5503 35.3664 71.3979 34.845 71.0931 34.444C70.7883 34.0269 70.3151 33.8184 69.6734 33.8184C68.8553 33.8184 68.2297 34.1312 67.7965 34.7568C67.3794 35.3824 67.1709 36.2005 67.1709 37.2112V42.6252H63.5615V30.8346H66.9303V32.3265Z" fill="#939AA3"/>
<path d="M76.0334 30.8346H80.2203L82.8672 37.524H83.1078L85.8028 30.8346H89.9416L84.7441 42.6252H81.1828L76.0334 30.8346Z" fill="#939AA3"/>
<path d="M102.437 39.7618C101.859 40.7724 101.097 41.5665 100.151 42.144C99.2206 42.7215 98.0897 43.0102 96.7582 43.0102C95.8438 43.0102 94.9936 42.8578 94.2076 42.553C93.4376 42.2322 92.7638 41.7911 92.1863 41.2296C91.6088 40.6682 91.1597 40.0104 90.8388 39.2565C90.518 38.4865 90.3576 37.6443 90.3576 36.7299C90.3576 35.8797 90.518 35.0776 90.8388 34.3237C91.1597 33.5537 91.6008 32.8879 92.1623 32.3265C92.7398 31.749 93.4055 31.2918 94.1594 30.9549C94.9294 30.618 95.7636 30.4496 96.6619 30.4496C97.6405 30.4496 98.4987 30.61 99.2366 30.9309C99.9906 31.2517 100.616 31.6928 101.114 32.2543C101.611 32.7997 101.988 33.4494 102.244 34.2034C102.501 34.9413 102.629 35.7353 102.629 36.5855C102.629 36.7139 102.621 36.8422 102.605 36.9705C102.605 37.0989 102.597 37.2112 102.581 37.3074C102.565 37.4197 102.557 37.524 102.557 37.6202H93.8707C94.0472 38.3902 94.4081 38.9517 94.9535 39.3046C95.4989 39.6575 96.1085 39.834 96.7823 39.834C97.456 39.834 98.0094 39.6896 98.4426 39.4009C98.8917 39.1121 99.2447 38.7432 99.5013 38.294L102.437 39.7618ZM99.2366 35.1659C99.2046 34.9734 99.1243 34.7648 98.996 34.5402C98.8837 34.3157 98.7153 34.1151 98.4907 33.9387C98.2822 33.7462 98.0175 33.5938 97.6966 33.4815C97.3918 33.3531 97.0469 33.289 96.6619 33.289C96.1005 33.289 95.5791 33.4494 95.0979 33.7702C94.6166 34.0911 94.2637 34.5563 94.0391 35.1659H99.2366Z" fill="#939AA3"/>
<path d="M109.639 43.0102C108.82 43.0102 108.099 42.914 107.473 42.7215C106.847 42.529 106.302 42.2803 105.837 41.9755C105.388 41.6547 105.011 41.2938 104.706 40.8927C104.401 40.4757 104.168 40.0586 104.008 39.6415L107.256 38.2699C107.481 38.8153 107.794 39.2164 108.195 39.473C108.596 39.7137 109.077 39.834 109.639 39.834C110.12 39.834 110.489 39.7618 110.745 39.6174C111.018 39.457 111.155 39.2565 111.155 39.0159C111.155 38.7432 111.026 38.5346 110.77 38.3902C110.513 38.2298 110.104 38.0854 109.542 37.9571L107.93 37.6202C107.545 37.54 107.152 37.4117 106.751 37.2352C106.35 37.0588 105.981 36.8262 105.644 36.5374C105.307 36.2487 105.035 35.9118 104.826 35.5268C104.618 35.1258 104.513 34.6686 104.513 34.1552C104.513 33.5938 104.634 33.0885 104.874 32.6393C105.131 32.1741 105.476 31.7811 105.909 31.4602C106.342 31.1394 106.855 30.8908 107.449 30.7143C108.042 30.5378 108.692 30.4496 109.398 30.4496C110.617 30.4496 111.668 30.6662 112.55 31.0993C113.432 31.5164 114.098 32.2222 114.547 33.2168L111.443 34.4921C111.235 34.075 110.938 33.7702 110.553 33.5777C110.184 33.3852 109.807 33.289 109.422 33.289C109.005 33.289 108.668 33.3612 108.411 33.5055C108.155 33.6499 108.026 33.8264 108.026 34.0349C108.026 34.2595 108.155 34.444 108.411 34.5884C108.684 34.7167 109.013 34.829 109.398 34.9252L111.227 35.3584C112.43 35.6471 113.328 36.1123 113.922 36.754C114.515 37.3957 114.812 38.1496 114.812 39.0159C114.812 39.5452 114.684 40.0505 114.427 40.5318C114.186 41.013 113.833 41.4381 113.368 41.8071C112.919 42.1761 112.374 42.4648 111.732 42.6734C111.106 42.8979 110.409 43.0102 109.639 43.0102Z" fill="#939AA3"/>
<path d="M117.921 33.8665H115.851V30.8346H117.921V27.2252H121.53V30.8346H124.442V33.8665H121.53V37.8368C121.53 38.0935 121.562 38.3341 121.626 38.5587C121.69 38.7672 121.803 38.9437 121.963 39.088C122.204 39.2966 122.517 39.4009 122.902 39.4009C123.158 39.4009 123.375 39.3688 123.551 39.3046C123.728 39.2404 123.88 39.1602 124.008 39.064L125.019 42.1921C124.602 42.3846 124.153 42.537 123.672 42.6493C123.19 42.7616 122.677 42.8177 122.132 42.8177C120.864 42.8177 119.862 42.4488 119.124 41.7109C118.739 41.3259 118.442 40.8526 118.233 40.2912C118.025 39.7137 117.921 39.08 117.921 38.3902V33.8665Z" fill="#939AA3"/>
<rect x="3" y="3" width="38" height="38" stroke="#939AA3" stroke-width="6"/>
</svg>
