<svg width="167" height="52" viewBox="0 0 167 52" fill="none" xmlns="http://www.w3.org/2000/svg">
<path fill-rule="evenodd" clip-rule="evenodd" d="M14.8109 8.56836H20.8687V25.6707H14.8109V8.56836Z" fill="#0089CC"/>
<path fill-rule="evenodd" clip-rule="evenodd" d="M17.6724 34.9696C7.9122 34.9696 0 27.2899 0 17.8164C0 11.3308 3.70886 5.68645 9.17971 2.771V8.66795C6.60414 10.9219 4.98485 14.1854 4.98485 17.8164C4.98485 24.6177 10.6653 30.1312 17.6724 30.1312C24.6796 30.1312 30.36 24.6177 30.36 17.8164C30.36 14.1854 28.7408 10.9219 26.1652 8.66795V2.771C31.6362 5.68655 35.3449 11.3309 35.3449 17.8164C35.3449 27.2899 27.4327 34.9696 17.6724 34.9696Z" fill="#0089CC"/>
<path fill-rule="evenodd" clip-rule="evenodd" d="M17.6557 0C19.4671 0 20.9356 1.43846 20.9356 3.21297C20.9356 4.98747 19.4671 6.42593 17.6557 6.42593C15.8441 6.42593 14.3757 4.98747 14.3757 3.21297C14.3757 1.43846 15.8441 0 17.6557 0Z" fill="#0089CC"/>
<path d="M54.7156 2.77075H62.7393V20.5793C62.7393 23.8532 61.8843 26.5132 60.167 28.5739C59.1805 29.7577 57.9236 30.7005 56.4035 31.4019C54.8836 32.1035 53.3198 32.4542 51.7194 32.4542C48.5333 32.4542 45.844 31.38 43.6591 29.2388C41.474 27.0977 40.3779 24.467 40.3779 21.3466C40.3779 18.3359 41.4668 15.7271 43.6372 13.5275C45.8074 11.3279 48.3724 10.2245 51.3467 10.2245C51.8144 10.2245 52.5305 10.2683 53.4878 10.3632V19.1835C52.8301 18.6793 52.1724 18.4235 51.5147 18.4235C50.6817 18.4235 49.9728 18.7304 49.3809 19.3369C48.789 19.9434 48.4894 20.6742 48.4894 21.5365C48.4894 22.3623 48.7964 23.0785 49.4102 23.6703C50.0314 24.2622 50.7621 24.5618 51.6245 24.5618C53.6852 24.5618 54.7157 23.1367 54.7157 20.2796V2.77055L54.7156 2.77075ZM87.9213 22.6328H75.7833C75.6153 22.0189 75.5275 21.4636 75.5275 20.9521C75.5275 20.2432 75.6518 19.5418 75.8929 18.8621H79.9632C79.6781 17.2544 78.7867 16.4506 77.2886 16.4506C76.2874 16.4506 75.4763 16.8744 74.8479 17.7294C74.2195 18.5771 73.9052 19.6733 73.9052 21.0033C73.9052 22.3918 74.2047 23.5098 74.8113 24.3721C75.4178 25.2271 76.2144 25.6583 77.2009 25.6583C77.9974 25.6583 78.772 25.2563 79.5101 24.4525L84.07 29.9406C81.9435 31.614 79.576 32.4544 76.9744 32.4544C73.8102 32.4544 71.1429 31.3874 68.9871 29.261C66.8314 27.1272 65.7499 24.4964 65.7499 21.3469C65.7499 18.2192 66.8388 15.5739 69.0164 13.4181C71.2014 11.2624 73.876 10.1808 77.0475 10.1808C80.1459 10.1808 82.7546 11.2331 84.8593 13.345C86.9712 15.4496 88.0235 18.0438 88.0235 21.1348C88.0235 21.4492 87.9869 21.946 87.9211 22.6329L87.9213 22.6328ZM107.279 10.6629L97.297 32.8488L87.4536 10.6629H95.0973L97.3626 16.4214L99.8472 10.6629H107.279H107.279ZM116.151 10.6629V32.0158H108.127V10.6629H116.151ZM112.183 1.14844C113.271 1.14844 114.207 1.52845 115.003 2.29574C115.8 3.05576 116.195 3.96193 116.195 5.00686C116.195 6.11755 115.822 7.03834 115.069 7.74713C114.316 8.46328 113.359 8.82131 112.183 8.82131C111.013 8.82131 110.049 8.46328 109.296 7.74713C108.543 7.03824 108.171 6.11755 108.171 5.00686C108.171 3.96193 108.565 3.05576 109.362 2.29574C110.158 1.52845 111.094 1.14844 112.183 1.14844ZM133.952 22.187L141.895 21.8875C141.669 24.9639 140.521 27.4996 138.453 29.4801C136.385 31.4604 133.864 32.4543 130.897 32.4543C127.755 32.4543 125.11 31.3654 122.947 29.1804C120.784 26.9955 119.702 24.321 119.702 21.1567C119.702 18.146 120.791 15.5737 122.976 13.4325C125.161 11.2914 127.777 10.2245 130.832 10.2245C133.499 10.2245 135.852 11.0648 137.898 12.7456C139.937 14.4337 141.208 16.5748 141.705 19.1836L133.594 19.4832C132.892 18.5697 132.008 18.1166 130.941 18.1166C130.028 18.1166 129.275 18.4162 128.69 19.0154C128.106 19.6147 127.814 20.3747 127.814 21.2881C127.814 22.2162 128.12 22.9908 128.741 23.6192C129.363 24.2477 130.137 24.562 131.065 24.562C132.417 24.562 133.382 23.7727 133.952 22.187H133.952ZM166.361 22.6328H154.223C154.055 22.0189 153.967 21.4636 153.967 20.9521C153.967 20.2432 154.092 19.5418 154.333 18.8621H158.403C158.118 17.2544 157.227 16.4506 155.728 16.4506C154.727 16.4506 153.916 16.8744 153.288 17.7294C152.659 18.5771 152.345 19.6733 152.345 21.0033C152.345 22.3918 152.645 23.5098 153.251 24.3721C153.858 25.2271 154.654 25.6583 155.641 25.6583C156.437 25.6583 157.212 25.2563 157.95 24.4525L162.51 29.9406C160.383 31.614 158.016 32.4544 155.414 32.4544C152.25 32.4544 149.583 31.3874 147.427 29.261C145.271 27.1272 144.19 24.4964 144.19 21.3469C144.19 18.2192 145.279 15.5739 147.456 13.4181C149.641 11.2624 152.316 10.1808 155.487 10.1808C158.586 10.1808 161.195 11.2331 163.299 13.345C165.411 15.4496 166.463 18.0438 166.463 21.1348C166.463 21.4492 166.427 21.946 166.361 22.6329L166.361 22.6328Z" fill="black"/>
<path d="M4.30701 50.2706V44.3735H5.5013V50.2706H4.30701Z" fill="black"/>
<path d="M10.5155 50.2703H9.38714V48.0919C9.38714 47.6307 9.36243 47.3327 9.31432 47.1983C9.26491 47.0625 9.18664 46.9581 9.07682 46.8826C8.96709 46.8072 8.83527 46.7701 8.68157 46.7701C8.4839 46.7701 8.30681 46.8236 8.15028 46.9307C7.99235 47.0379 7.88534 47.1806 7.82775 47.3562C7.76876 47.5333 7.73991 47.86 7.73991 48.3376V50.2704H6.61157V45.9959H7.65752V46.6231C8.03228 46.1442 8.50306 45.9053 9.07268 45.9053C9.32249 45.9053 9.55173 45.9506 9.75908 46.0398C9.96765 46.1304 10.1242 46.2443 10.2299 46.383C10.337 46.523 10.411 46.6808 10.4522 46.8579C10.4948 47.035 10.5154 47.2875 10.5154 47.6169V50.2704L10.5155 50.2703Z" fill="black"/>
<path d="M13.6108 45.996V46.8937H12.8365V48.6246C12.8365 48.9761 12.8434 49.1805 12.8585 49.2382C12.8737 49.2959 12.9065 49.3439 12.9601 49.3823C13.0122 49.4193 13.0754 49.4386 13.1509 49.4386C13.2565 49.4386 13.4076 49.4028 13.6065 49.3301L13.7012 50.2085C13.4391 50.3211 13.1426 50.3774 12.8104 50.3774C12.6072 50.3774 12.4247 50.343 12.2614 50.2745C12.098 50.2058 11.9786 50.1165 11.903 50.0082C11.8262 49.8984 11.7741 49.7514 11.7439 49.5648C11.7205 49.433 11.7081 49.1667 11.7081 48.7645V46.8936H11.1892V45.9959H11.7081V45.1476L12.8364 44.4805V45.9959H13.6107L13.6108 45.996Z" fill="black"/>
<path d="M18.9821 50.2706V44.3735H20.1104V50.2706H18.9821Z" fill="black"/>
<path d="M21.2703 50.2706V44.3735H22.3986V50.2706H21.2703Z" fill="black"/>
<path d="M23.5585 45.4195V44.3735H24.6868V45.4195H23.5585ZM23.5585 50.2705V45.9961H24.6868V50.2705H23.5585Z" fill="black"/>
<path d="M25.7396 50.542L27.0326 50.6985C27.0546 50.8509 27.104 50.9552 27.1809 51.0129C27.2894 51.0939 27.4581 51.1351 27.6888 51.1351C27.984 51.1351 28.2049 51.0912 28.3532 51.0019C28.452 50.9429 28.5275 50.8482 28.5783 50.7164C28.6127 50.6231 28.6304 50.4487 28.6304 50.1976L28.636 49.573C28.2955 50.0383 27.8673 50.2703 27.3511 50.2703C26.7775 50.2703 26.3216 50.0273 25.9867 49.5427C25.7231 49.1598 25.5914 48.6822 25.5914 48.1124C25.5914 47.3959 25.7644 46.8496 26.1089 46.4722C26.4535 46.0947 26.8831 45.9053 27.3964 45.9053C27.9249 45.9053 28.3615 46.1372 28.7047 46.6012V45.9958H29.7588V49.8282C29.7588 50.3321 29.7176 50.7096 29.6339 50.958C29.5516 51.2078 29.4348 51.4028 29.2838 51.5456C29.1343 51.687 28.9339 51.7995 28.6827 51.8791C28.4314 51.9601 28.1144 51.9998 27.7314 51.9998C27.0067 51.9998 26.4934 51.8749 26.19 51.6264C25.8867 51.3766 25.7357 51.0623 25.7357 50.6793C25.7357 50.6423 25.7371 50.5956 25.7398 50.5421L25.7396 50.542ZM26.7525 48.0465C26.7525 48.4995 26.8404 48.8303 27.0148 49.0403C27.1904 49.2504 27.4073 49.3559 27.6641 49.3559C27.9386 49.3559 28.1719 49.2475 28.3613 49.032C28.5522 48.8166 28.6469 48.4981 28.6469 48.0753C28.6469 47.6333 28.5563 47.3052 28.3738 47.0911C28.1926 46.8769 27.9619 46.7698 27.6832 46.7698C27.4128 46.7698 27.1904 46.8755 27.0148 47.0856C26.8404 47.2955 26.7525 47.6153 26.7525 48.0464V48.0465Z" fill="black"/>
<path d="M33.3484 48.9198L34.4767 49.1092C34.3326 49.5224 34.1034 49.8366 33.7917 50.0535C33.4788 50.269 33.0876 50.3775 32.6195 50.3775C31.877 50.3775 31.3265 50.1345 30.971 49.6485C30.6896 49.2586 30.5482 48.7673 30.5482 48.1729C30.5482 47.4647 30.7335 46.9087 31.1028 46.5079C31.472 46.1057 31.9401 45.9053 32.5057 45.9053C33.1398 45.9053 33.6409 46.1153 34.0088 46.5353C34.3753 46.9554 34.551 47.5992 34.5345 48.4666H31.7095C31.7178 48.8016 31.8084 49.0625 31.9826 49.2491C32.1556 49.4358 32.3725 49.5292 32.6305 49.5292C32.8076 49.5292 32.9559 49.4812 33.0753 49.3851C33.196 49.289 33.2867 49.1339 33.3484 48.9198ZM33.4144 47.7749C33.4061 47.4468 33.3223 47.197 33.1617 47.0268C33.0011 46.8552 32.8061 46.77 32.5756 46.77C32.3299 46.77 32.1268 46.8606 31.9661 47.0405C31.8055 47.2203 31.7273 47.466 31.73 47.7748H33.4144V47.7749Z" fill="black"/>
<path d="M39.3456 50.2703H38.2172V48.0919C38.2172 47.6307 38.1925 47.3327 38.1444 47.1983C38.095 47.0625 38.0167 46.9581 37.9069 46.8826C37.7972 46.8072 37.6654 46.7701 37.5117 46.7701C37.314 46.7701 37.1369 46.8236 36.9804 46.9307C36.8224 47.0379 36.7154 47.1806 36.6578 47.3562C36.5988 47.5333 36.57 47.86 36.57 48.3376V50.2704H35.4417V45.9959H36.4876V46.6231C36.8624 46.1442 37.3331 45.9053 37.9028 45.9053C38.1526 45.9053 38.3818 45.9506 38.5892 46.0398C38.7977 46.1304 38.9542 46.2443 39.0599 46.383C39.167 46.523 39.2411 46.6808 39.2823 46.8579C39.3249 47.035 39.3455 47.2875 39.3455 47.6169V50.2704L39.3456 50.2703Z" fill="black"/>
<path d="M42.4409 45.996V46.8937H41.6666V48.6246C41.6666 48.9761 41.6735 49.1805 41.6886 49.2382C41.7037 49.2959 41.7366 49.3439 41.7902 49.3823C41.8423 49.4193 41.9054 49.4386 41.981 49.4386C42.0866 49.4386 42.2376 49.4028 42.4366 49.3301L42.5313 50.2085C42.2692 50.3211 41.9727 50.3774 41.6405 50.3774C41.4373 50.3774 41.2547 50.343 41.0915 50.2745C40.9281 50.2058 40.8087 50.1165 40.7331 50.0082C40.6563 49.8984 40.6041 49.7514 40.574 49.5648C40.5506 49.433 40.5382 49.1667 40.5382 48.7645V46.8936H40.0193V45.9959H40.5382V45.1476L41.6665 44.4805V45.9959H42.4408L42.4409 45.996Z" fill="black"/>
<path d="M61.5043 50.2706V44.3735H62.6985V50.2706H61.5043Z" fill="black"/>
<path d="M67.7127 50.2703H66.5844V48.0919C66.5844 47.6307 66.5597 47.3327 66.5116 47.1983C66.4622 47.0625 66.3839 46.9581 66.2741 46.8826C66.1644 46.8072 66.0325 46.7701 65.8788 46.7701C65.6812 46.7701 65.5041 46.8236 65.3476 46.9307C65.1896 47.0379 65.0826 47.1806 65.025 47.3562C64.966 47.5333 64.9372 47.86 64.9372 48.3376V50.2704H63.8088V45.9959H64.8548V46.6231C65.2295 46.1442 65.7003 45.9053 66.2699 45.9053C66.5198 45.9053 66.749 45.9506 66.9563 46.0398C67.1649 46.1304 67.3214 46.2443 67.4271 46.383C67.5342 46.523 67.6083 46.6808 67.6495 46.8579C67.6921 47.035 67.7126 47.2875 67.7126 47.6169V50.2704L67.7127 50.2703Z" fill="black"/>
<path d="M70.8079 45.996V46.8937H70.0337V48.6246C70.0337 48.9761 70.0405 49.1805 70.0557 49.2382C70.0708 49.2959 70.1037 49.3439 70.1572 49.3823C70.2094 49.4193 70.2725 49.4386 70.348 49.4386C70.4536 49.4386 70.6047 49.4028 70.8037 49.3301L70.8984 50.2085C70.6363 50.3211 70.3398 50.3774 70.0076 50.3774C69.8043 50.3774 69.6218 50.343 69.4585 50.2745C69.2951 50.2058 69.1757 50.1165 69.1002 50.0082C69.0233 49.8984 68.9712 49.7514 68.941 49.5648C68.9176 49.433 68.9052 49.1667 68.9052 48.7645V46.8936H68.3864V45.9959H68.9052V45.1476L70.0336 44.4805V45.9959H70.8078L70.8079 45.996Z" fill="black"/>
<path d="M74.0695 48.9198L75.1978 49.1092C75.0537 49.5224 74.8244 49.8366 74.5128 50.0535C74.1999 50.269 73.8087 50.3775 73.3406 50.3775C72.598 50.3775 72.0476 50.1345 71.6921 49.6485C71.4107 49.2586 71.2693 48.7673 71.2693 48.1729C71.2693 47.4647 71.4546 46.9087 71.8239 46.5079C72.1931 46.1057 72.6612 45.9053 73.2267 45.9053C73.8609 45.9053 74.3619 46.1153 74.7298 46.5353C75.0963 46.9554 75.272 47.5992 75.2556 48.4666H72.4306C72.4389 48.8016 72.5294 49.0625 72.7037 49.2491C72.8767 49.4358 73.0936 49.5292 73.3516 49.5292C73.5287 49.5292 73.6769 49.4812 73.7964 49.3851C73.9171 49.289 74.0077 49.1339 74.0695 48.9198ZM74.1354 47.7749C74.1271 47.4468 74.0433 47.197 73.8828 47.0268C73.7221 46.8552 73.5272 46.77 73.2966 46.77C73.051 46.77 72.8478 46.8606 72.6872 47.0405C72.5266 47.2203 72.4484 47.466 72.4511 47.7748H74.1354V47.7749Z" fill="black"/>
<path d="M76.1792 50.2706V44.3735H77.3075V50.2706H76.1792Z" fill="black"/>
<path d="M78.4674 50.2706V44.3735H79.5957V50.2706H78.4674Z" fill="black"/>
<path d="M83.2264 48.9198L84.3548 49.1092C84.2107 49.5224 83.9814 49.8366 83.6698 50.0535C83.3569 50.269 82.9656 50.3775 82.4976 50.3775C81.755 50.3775 81.2045 50.1345 80.849 49.6485C80.5677 49.2586 80.4263 48.7673 80.4263 48.1729C80.4263 47.4647 80.6115 46.9087 80.9809 46.5079C81.3501 46.1057 81.8181 45.9053 82.3837 45.9053C83.0179 45.9053 83.5189 46.1153 83.8868 46.5353C84.2533 46.9554 84.429 47.5992 84.4126 48.4666H81.5876C81.5959 48.8016 81.6864 49.0625 81.8607 49.2491C82.0337 49.4358 82.2506 49.5292 82.5086 49.5292C82.6857 49.5292 82.8339 49.4812 82.9533 49.3851C83.0741 49.289 83.1647 49.1339 83.2264 48.9198ZM83.2924 47.7749C83.2841 47.4468 83.2003 47.197 83.0398 47.0268C82.8791 46.8552 82.6842 46.77 82.4536 46.77C82.2079 46.77 82.0048 46.8606 81.8442 47.0405C81.6836 47.2203 81.6053 47.466 81.6081 47.7748H83.2924V47.7749Z" fill="black"/>
<path d="M89.0589 47.2642L87.9471 47.4618C87.9101 47.2408 87.825 47.0748 87.6917 46.9621C87.5586 46.851 87.3871 46.7947 87.1756 46.7947C86.8942 46.7947 86.6691 46.8921 86.5017 47.0871C86.3342 47.2819 86.2504 47.6073 86.2504 48.0644C86.2504 48.5723 86.3356 48.9305 86.5058 49.1406C86.6759 49.3507 86.9039 49.455 87.1894 49.455C87.4035 49.455 87.5793 49.3933 87.7151 49.271C87.8524 49.1489 87.9485 48.9388 88.0048 48.6397L89.1166 48.8291C89.0013 49.3397 88.7802 49.7255 88.4536 49.9862C88.1269 50.247 87.689 50.3774 87.1386 50.3774C86.5154 50.3774 86.0171 50.1797 85.6465 49.7857C85.2746 49.3904 85.0892 48.844 85.0892 48.1454C85.0892 47.4385 85.2759 46.8895 85.6479 46.4955C86.0198 46.1015 86.5236 45.9053 87.1591 45.9053C87.678 45.9053 88.0911 46.0178 88.3986 46.2416C88.7048 46.4653 88.9244 46.8058 89.0589 47.2643V47.2642Z" fill="black"/>
<path d="M91.869 45.996V46.8937H91.0947V48.6246C91.0947 48.9761 91.1016 49.1805 91.1167 49.2382C91.1318 49.2959 91.1647 49.3439 91.2183 49.3823C91.2704 49.4193 91.3335 49.4386 91.4091 49.4386C91.5147 49.4386 91.6657 49.4028 91.8647 49.3301L91.9594 50.2085C91.6973 50.3211 91.4008 50.3774 91.0686 50.3774C90.8654 50.3774 90.6828 50.343 90.5196 50.2745C90.3562 50.2058 90.2368 50.1165 90.1612 50.0082C90.0844 49.8984 90.0322 49.7514 90.0021 49.5648C89.9787 49.433 89.9663 49.1667 89.9663 48.7645V46.8936H89.4474V45.9959H89.9663V45.1476L91.0946 44.4805V45.9959H91.8689L91.869 45.996Z" fill="black"/>
<path d="M95.4845 50.2705V49.6309C95.3281 49.8588 95.1235 50.04 94.8695 50.1758C94.6156 50.3104 94.348 50.3776 94.0666 50.3776C93.7784 50.3776 93.5202 50.3145 93.2924 50.1882C93.0631 50.0619 92.8983 49.8835 92.7968 49.6556C92.6939 49.4264 92.6431 49.1107 92.6431 48.7071V45.9961H93.7714V47.9644C93.7714 48.567 93.792 48.9348 93.8344 49.0708C93.8757 49.2067 93.9511 49.3152 94.0624 49.3934C94.1721 49.473 94.3121 49.5128 94.4824 49.5128C94.676 49.5128 94.8489 49.4593 95.0026 49.3536C95.1563 49.248 95.2606 49.1162 95.317 48.9583C95.3732 48.8004 95.4021 48.4161 95.4021 47.8025V45.9961H96.5304V50.2705H95.4845Z" fill="black"/>
<path d="M98.5304 47.3136L97.509 47.1325C97.6244 46.7152 97.8234 46.4063 98.1049 46.2058C98.3863 46.0055 98.8049 45.9053 99.3595 45.9053C99.8632 45.9053 100.239 45.9643 100.486 46.0837C100.732 46.2031 100.906 46.3541 101.007 46.538C101.107 46.722 101.158 47.0582 101.158 47.5497L101.141 48.8674C101.141 49.2422 101.159 49.5194 101.195 49.6978C101.23 49.8762 101.298 50.0671 101.396 50.2703H100.276C100.247 50.1962 100.21 50.0863 100.168 49.9408C100.15 49.8735 100.136 49.8296 100.128 49.8091C99.9357 49.9985 99.7299 50.1399 99.5102 50.2346C99.2906 50.3293 99.0572 50.3774 98.8088 50.3774C98.3709 50.3774 98.025 50.2579 97.7725 50.0191C97.5198 49.7815 97.3936 49.4797 97.3936 49.1145C97.3936 48.8743 97.4511 48.6588 97.5665 48.4693C97.6819 48.2812 97.8425 48.1357 98.0511 48.0355C98.2584 47.9353 98.5576 47.8474 98.9488 47.772C99.4759 47.6731 99.8424 47.5797 100.045 47.4947V47.3807C100.045 47.1612 99.9919 47.0047 99.8849 46.91C99.7764 46.8166 99.5733 46.77 99.2755 46.77C99.0737 46.77 98.9171 46.8098 98.8047 46.8908C98.6907 46.9704 98.6002 47.1118 98.5302 47.3136H98.5304ZM100.046 48.2277C99.9016 48.2757 99.6723 48.3334 99.358 48.4008C99.045 48.4679 98.8391 48.5339 98.743 48.597C98.5961 48.7026 98.522 48.8345 98.522 48.9951C98.522 49.1543 98.581 49.2903 98.6991 49.4055C98.8171 49.5208 98.9668 49.5785 99.1493 49.5785C99.3525 49.5785 99.5474 49.5113 99.7327 49.3781C99.8686 49.2752 99.9593 49.1516 100.002 49.0034C100.031 48.9073 100.046 48.7233 100.046 48.4529V48.2277H100.046Z" fill="black"/>
<path d="M102.271 50.2706V44.3735H103.399V50.2706H102.271Z" fill="black"/>
<path d="M125.12 50.2706V44.3735H126.314V50.2706H125.12Z" fill="black"/>
<path d="M131.328 50.2703H130.2V48.0919C130.2 47.6307 130.175 47.3327 130.127 47.1983C130.078 47.0625 130 46.9581 129.89 46.8826C129.78 46.8072 129.648 46.7701 129.495 46.7701C129.297 46.7701 129.12 46.8236 128.963 46.9307C128.805 47.0379 128.698 47.1806 128.641 47.3562C128.582 47.5333 128.553 47.86 128.553 48.3376V50.2704H127.425V45.9959H128.471V46.6231C128.845 46.1442 129.316 45.9053 129.886 45.9053C130.135 45.9053 130.365 45.9506 130.572 46.0398C130.781 46.1304 130.937 46.2443 131.043 46.383C131.15 46.523 131.224 46.6808 131.265 46.8579C131.308 47.035 131.328 47.2875 131.328 47.6169V50.2704L131.328 50.2703Z" fill="black"/>
<path d="M136.359 50.2703H135.231V48.0919C135.231 47.6307 135.206 47.3327 135.158 47.1983C135.109 47.0625 135.03 46.9581 134.921 46.8826C134.811 46.8072 134.679 46.7701 134.525 46.7701C134.328 46.7701 134.151 46.8236 133.994 46.9307C133.836 47.0379 133.729 47.1806 133.672 47.3562C133.613 47.5333 133.584 47.86 133.584 48.3376V50.2704H132.455V45.9959H133.501V46.6231C133.876 46.1442 134.347 45.9053 134.916 45.9053C135.166 45.9053 135.395 45.9506 135.603 46.0398C135.811 46.1304 135.968 46.2443 136.074 46.383C136.181 46.523 136.255 46.6808 136.296 46.8579C136.339 47.035 136.359 47.2875 136.359 47.6169V50.2704L136.359 50.2703Z" fill="black"/>
<path d="M137.239 48.0811C137.239 47.705 137.331 47.3411 137.516 46.9897C137.702 46.637 137.964 46.3693 138.303 46.1839C138.642 45.9987 139.019 45.9053 139.438 45.9053C140.085 45.9053 140.613 46.1153 141.026 46.5353C141.44 46.9567 141.645 47.4865 141.645 48.129C141.645 48.777 141.437 49.3136 141.021 49.7391C140.604 50.1646 140.079 50.3774 139.446 50.3774C139.055 50.3774 138.682 50.2881 138.326 50.111C137.972 49.9339 137.702 49.6745 137.516 49.3314C137.331 48.9897 137.239 48.5723 137.239 48.081L137.239 48.0811ZM138.4 48.1414C138.4 48.5656 138.501 48.8908 138.701 49.116C138.903 49.3425 139.15 49.455 139.445 49.455C139.739 49.455 139.986 49.3424 140.185 49.116C140.384 48.8908 140.484 48.5627 140.484 48.1331C140.484 47.7145 140.384 47.3919 140.185 47.1668C139.986 46.9403 139.739 46.8278 139.445 46.8278C139.15 46.8278 138.903 46.9403 138.701 47.1668C138.501 47.3919 138.4 47.7173 138.4 48.1414Z" fill="black"/>
<path d="M143.708 50.2705L141.986 45.9961H143.172L143.976 48.1772L144.209 48.9062C144.271 48.7209 144.311 48.5988 144.326 48.5397C144.364 48.4189 144.404 48.2981 144.448 48.1772L145.264 45.9961H146.425L144.727 50.2705H143.708Z" fill="black"/>
<path d="M147.954 47.3136L146.933 47.1325C147.048 46.7152 147.247 46.4063 147.529 46.2058C147.81 46.0055 148.229 45.9053 148.783 45.9053C149.287 45.9053 149.663 45.9643 149.91 46.0837C150.156 46.2031 150.33 46.3541 150.43 46.538C150.531 46.722 150.581 47.0582 150.581 47.5497L150.565 48.8674C150.565 49.2422 150.583 49.5194 150.618 49.6978C150.654 49.8762 150.721 50.0671 150.82 50.2703H149.7C149.671 50.1962 149.634 50.0863 149.592 49.9408C149.574 49.8735 149.56 49.8296 149.552 49.8091C149.359 49.9985 149.154 50.1399 148.934 50.2346C148.714 50.3293 148.481 50.3774 148.233 50.3774C147.795 50.3774 147.449 50.2579 147.196 50.0191C146.944 49.7815 146.817 49.4797 146.817 49.1145C146.817 48.8743 146.875 48.6588 146.99 48.4693C147.106 48.2812 147.266 48.1357 147.475 48.0355C147.682 47.9353 147.981 47.8474 148.373 47.772C148.9 47.6731 149.266 47.5797 149.469 47.4947V47.3807C149.469 47.1612 149.416 47.0047 149.309 46.91C149.2 46.8166 148.997 46.77 148.699 46.77C148.497 46.77 148.341 46.8098 148.228 46.8908C148.114 46.9704 148.024 47.1118 147.954 47.3136H147.954ZM149.469 48.2277C149.325 48.2757 149.096 48.3334 148.782 48.4008C148.469 48.4679 148.263 48.5339 148.167 48.597C148.02 48.7026 147.946 48.8345 147.946 48.9951C147.946 49.1543 148.005 49.2903 148.123 49.4055C148.241 49.5208 148.39 49.5785 148.573 49.5785C148.776 49.5785 148.971 49.5113 149.156 49.3781C149.292 49.2752 149.383 49.1516 149.425 49.0034C149.454 48.9073 149.469 48.7233 149.469 48.4529V48.2277H149.469Z" fill="black"/>
<path d="M153.646 45.996V46.8937H152.872V48.6246C152.872 48.9761 152.879 49.1805 152.894 49.2382C152.909 49.2959 152.942 49.3439 152.996 49.3823C153.048 49.4193 153.111 49.4386 153.187 49.4386C153.292 49.4386 153.443 49.4028 153.642 49.3301L153.737 50.2085C153.475 50.3211 153.178 50.3774 152.846 50.3774C152.643 50.3774 152.46 50.343 152.297 50.2745C152.134 50.2058 152.014 50.1165 151.939 50.0082C151.862 49.8984 151.81 49.7514 151.78 49.5648C151.756 49.433 151.744 49.1667 151.744 48.7645V46.8936H151.225V45.9959H151.744V45.1476L152.872 44.4805V45.9959H153.646L153.646 45.996Z" fill="black"/>
<path d="M154.437 45.4195V44.3735H155.566V45.4195H154.437ZM154.437 50.2705V45.9961H155.566V50.2705H154.437Z" fill="black"/>
<path d="M157.901 50.2705L156.178 45.9961H157.364L158.168 48.1772L158.402 48.9062C158.463 48.7209 158.503 48.5988 158.518 48.5397C158.557 48.4189 158.597 48.2981 158.64 48.1772L159.456 45.9961H160.617L158.919 50.2705H157.901Z" fill="black"/>
<path d="M163.777 48.9198L164.905 49.1092C164.761 49.5224 164.532 49.8366 164.22 50.0535C163.907 50.269 163.516 50.3775 163.048 50.3775C162.305 50.3775 161.755 50.1345 161.399 49.6485C161.118 49.2586 160.977 48.7673 160.977 48.1729C160.977 47.4647 161.162 46.9087 161.531 46.5079C161.9 46.1057 162.369 45.9053 162.934 45.9053C163.568 45.9053 164.069 46.1153 164.437 46.5353C164.804 46.9554 164.979 47.5992 164.963 48.4666H162.138C162.146 48.8016 162.237 49.0625 162.411 49.2491C162.584 49.4358 162.801 49.5292 163.059 49.5292C163.236 49.5292 163.384 49.4812 163.504 49.3851C163.624 49.289 163.715 49.1339 163.777 48.9198ZM163.843 47.7749C163.835 47.4468 163.751 47.197 163.59 47.0268C163.43 46.8552 163.235 46.77 163.004 46.77C162.758 46.77 162.555 46.8606 162.395 47.0405C162.234 47.2203 162.156 47.466 162.158 47.7748H163.843V47.7749Z" fill="black"/>
<path d="M16.8723 48.9198L18.0007 49.1092C17.8565 49.5224 17.6273 49.8366 17.3157 50.0535C17.0027 50.269 16.6115 50.3775 16.1435 50.3775C15.4009 50.3775 14.8504 50.1345 14.4949 49.6485C14.2135 49.2586 14.0721 48.7673 14.0721 48.1729C14.0721 47.4647 14.2574 46.9087 14.6267 46.5079C14.996 46.1057 15.464 45.9053 16.0296 45.9053C16.6638 45.9053 17.1648 46.1153 17.5327 46.5353C17.8992 46.9554 18.0749 47.5992 18.0584 48.4666H15.2335C15.2417 48.8016 15.3323 49.0625 15.5066 49.2491C15.6795 49.4358 15.8965 49.5292 16.1544 49.5292C16.3315 49.5292 16.4798 49.4812 16.5992 49.3851C16.7199 49.289 16.8106 49.1339 16.8723 48.9198ZM16.9383 47.7749C16.93 47.4468 16.8462 47.197 16.6856 47.0268C16.525 46.8552 16.33 46.77 16.0995 46.77C15.8538 46.77 15.6507 46.8606 15.49 47.0405C15.3295 47.2203 15.2512 47.466 15.2539 47.7748H16.9383V47.7749Z" fill="black"/>
</svg>
