<svg width="110" height="70" viewBox="0 0 110 70" fill="none" xmlns="http://www.w3.org/2000/svg">
<path fill-rule="evenodd" clip-rule="evenodd" d="M5.35489 39.87C7.85384 39.7272 10.9954 39.513 10.9954 42.3689C10.9954 45.1535 7.71104 45.0107 5.35489 44.7965V39.87ZM0 55.4349V56.4344H5.35489V49.723C8.13943 49.723 10.7098 50.0086 12.8517 48.7234C16.9215 46.3672 17.3498 40.0128 14.2797 37.014C12.5661 35.3719 10.8526 34.8721 7.71104 34.8721L0 34.9435V55.4349Z" fill="#E31E24"/>
<path fill-rule="evenodd" clip-rule="evenodd" d="M36.1276 44.4389C41.0541 43.2252 42.6249 51.436 37.6984 52.4356C32.6291 53.4352 30.9155 45.7241 36.1276 44.4389ZM45.4808 50.008C46.2662 44.7959 43.0533 40.7262 38.4838 39.9408C33.0575 39.0126 28.9164 42.3684 28.2024 46.7951C26.2032 58.9328 43.8387 60.6464 45.4808 50.008Z" fill="#E31E24"/>
<path fill-rule="evenodd" clip-rule="evenodd" d="M30.2016 30.7307C32.415 30.8735 33.8429 31.0877 33.8429 28.1604V2.52832C33.8429 -0.184822 32.6291 0.0293736 30.2016 0.0293736V30.7307Z" fill="#E31E24"/>
<path fill-rule="evenodd" clip-rule="evenodd" d="M74.3258 2.38549V26.1612C74.3258 29.8025 73.826 30.9449 77.8958 30.6593V0.029337C75.611 -0.0420616 74.3258 -0.184859 74.3258 2.38549Z" fill="#E31E24"/>
<path fill-rule="evenodd" clip-rule="evenodd" d="M23.2045 41.8688L23.1331 40.3694H18.5636V56.5055H23.3473C23.3473 53.8638 23.3473 51.222 23.3473 48.6517C23.3473 45.3673 23.9899 44.8675 27.1314 44.6534L27.2028 39.7982C24.3469 39.5841 23.5615 41.5832 23.2045 41.8688Z" fill="#E31E24"/>
<path fill-rule="evenodd" clip-rule="evenodd" d="M69.8278 48.5088C62.7593 48.5088 64.5443 48.009 63.1163 49.9367C60.0462 54.0064 53.1205 52.0787 52.9777 45.867C52.9063 39.2983 60.0462 37.5134 63.0449 41.5117C63.4733 42.1543 63.6161 42.5827 63.9731 43.1539H69.685C69.8992 40.8691 66.9004 37.6562 65.6867 36.7994C58.1898 31.3731 47.48 36.2282 47.4086 45.5814C47.3372 51.5789 51.6926 56.077 57.1902 56.8624C63.6161 57.7192 68.7568 53.5067 69.8278 48.5088Z" fill="black"/>
<path fill-rule="evenodd" clip-rule="evenodd" d="M97.1021 49.0798C96.7451 46.7236 98.3159 44.7245 100.458 44.3675C102.885 44.0105 104.742 45.7241 105.027 47.7946C105.813 53.3637 97.8161 54.2205 97.1021 49.0798ZM92.3898 56.5052H96.9593L97.0307 54.8631C98.1731 55.5771 98.6015 56.7194 100.743 57.005C102.457 57.2192 104.456 56.8622 105.741 56.1482C108.097 54.8631 109.882 52.2927 109.954 48.7942C110.097 45.0815 108.383 42.2969 106.17 40.9403C104.171 39.7266 101.243 39.3696 98.9584 40.3692C97.9589 40.7976 97.6733 41.2973 97.2449 41.4401V34.9429H92.3898V56.5052Z" fill="black"/>
<path fill-rule="evenodd" clip-rule="evenodd" d="M84.1789 49.366C83.8219 51.3651 81.8227 53.0073 79.3952 52.5075C77.3246 52.0791 75.7538 50.0086 76.325 47.5096C77.396 42.5831 85.2499 43.7255 84.1789 49.366ZM84.5359 54.9351L84.6073 56.5058H89.1054V40.3698H84.6073L84.5359 41.9405C83.5363 40.7268 82.7509 40.0128 80.7517 39.87C68.1856 38.7276 68.0428 58.0766 80.5376 57.077C82.4653 56.8628 83.7505 56.2202 84.5359 54.9351Z" fill="black"/>
<path fill-rule="evenodd" clip-rule="evenodd" d="M50.0504 25.9466C55.4767 25.9466 54.5485 26.018 56.0479 17.3788C56.3335 15.5938 58.1899 5.74081 58.0471 4.81263C52.7636 4.66984 53.4061 5.24102 52.121 13.3091C51.764 15.3796 51.407 17.4502 51.1214 19.5207C50.7644 21.6627 50.2646 23.876 50.0504 25.9466Z" fill="black"/>
<path fill-rule="evenodd" clip-rule="evenodd" d="M42.5535 25.947C47.9798 26.1612 47.1944 25.6614 48.5509 17.3077C48.9079 15.2372 49.2649 13.238 49.5505 11.0961C49.8361 9.1683 50.4073 6.66935 50.5501 4.81299C45.1238 4.81299 45.9806 4.95579 44.5526 13.3808C43.91 17.5219 43.0533 21.8772 42.5535 25.947Z" fill="black"/>
<path fill-rule="evenodd" clip-rule="evenodd" d="M35.0567 25.9469C40.483 25.9469 39.6262 25.8041 41.0542 17.3077C41.4112 15.2371 41.7682 13.1666 42.1252 11.096C42.3394 9.88222 43.1247 5.8125 43.1247 4.81292C37.6985 4.45593 38.4838 5.59831 37.1987 13.3093C36.6275 16.3795 35.2709 23.4479 35.0567 25.9469Z" fill="black"/>
<path fill-rule="evenodd" clip-rule="evenodd" d="M65.0441 25.9472C67.7572 25.9472 69.5422 26.2328 70.042 23.5911C70.4704 21.3777 73.1121 5.88422 73.1121 4.81324C67.543 4.45625 68.4712 5.81282 67.186 13.3811L65.0441 25.9472Z" fill="black"/>
<path fill-rule="evenodd" clip-rule="evenodd" d="M57.5472 25.9465C62.9735 25.9465 62.1167 25.7323 63.5447 17.3073C64.2586 13.1662 65.044 8.95369 65.6152 4.81257C62.9735 4.66977 61.1171 4.59838 60.6173 7.16872L58.5468 19.6635C58.2612 21.5912 57.69 24.0188 57.5472 25.9465Z" fill="black"/>
<path d="M9.85298 64.7165C9.42459 64.7165 8.9248 64.8593 8.6392 65.3591H8.5678C8.5678 65.1449 8.49641 64.9307 8.42501 64.7879H7.49683V70H8.6392V68.1436H8.7106C8.9248 68.4292 9.35319 68.5006 9.78158 68.5006C10.924 68.5006 11.4237 67.6438 11.4237 66.5015C11.3523 65.5019 10.9954 64.7165 9.85298 64.7165ZM9.42459 65.5019C9.99577 65.5019 10.21 65.8589 10.21 66.6443C10.21 67.3582 9.92438 67.7866 9.42459 67.7866C8.8534 67.7866 8.6392 67.3582 8.6392 66.9298V66.4301C8.6392 65.9303 8.9248 65.5019 9.42459 65.5019ZM16.1361 64.6451C15.6363 64.6451 15.0651 64.8593 14.8509 65.4305H14.7795C14.7795 65.0735 14.7081 64.8593 14.6367 64.7165H13.6371V68.4292H14.7795V66.6443C14.7795 65.9303 15.0651 65.6447 16.1361 65.5733V64.6451ZM19.9916 64.7165C18.5636 64.7165 17.9924 65.5733 17.9924 66.6443C17.9924 67.7152 18.4922 68.572 19.9916 68.572C21.4909 68.572 21.9193 67.5724 21.9193 66.6443C21.9193 65.6447 21.4909 64.7165 19.9916 64.7165ZM19.9916 65.5019C20.5628 65.5019 20.777 65.9303 20.777 66.6443C20.777 67.4296 20.4914 67.7152 19.9916 67.7152C19.4204 67.7152 19.2062 67.3582 19.2062 66.6443C19.1348 65.9303 19.349 65.5019 19.9916 65.5019ZM25.7035 64.7165V64.3595C25.7035 63.9311 25.8463 63.7883 26.2746 63.7883C26.4174 63.7883 26.6316 63.7883 26.8458 63.8597V63.0743C26.5602 63.0029 26.2032 63.0029 25.989 63.0029C24.9895 63.0029 24.5611 63.4313 24.5611 64.2881V64.7165L23.9899 64.8593V65.5019H24.5611V68.5006H25.7035V65.5019H26.7744V64.7879H25.7035V64.7165ZM30.4872 65.5019C30.9155 65.5019 31.1297 65.7875 31.1297 66.1445H29.8446C29.8446 65.7161 30.1302 65.5019 30.4872 65.5019ZM30.4872 64.7165C29.202 64.7165 28.6308 65.5733 28.6308 66.7157C28.6308 67.858 29.202 68.572 30.5586 68.572C31.4153 68.572 32.2721 68.2864 32.2721 67.4296C32.2721 67.4296 32.2721 67.3582 32.2721 67.2868H31.2011C31.1297 67.501 30.9869 67.7866 30.5586 67.7866C29.9874 67.7866 29.7732 67.4296 29.7732 66.8585H32.2721C32.2721 66.7157 32.2721 66.6443 32.2721 66.5015C32.2721 65.5019 31.7723 64.7165 30.4872 64.7165ZM36.1276 64.7165C34.8425 64.7165 34.4855 65.3591 34.4855 65.8589C34.4855 66.6443 35.0567 66.8585 35.9848 67.0013C36.4846 67.0727 36.6988 67.144 36.6988 67.4296C36.6988 67.6438 36.556 67.7866 36.1276 67.7866C35.7706 67.7866 35.4851 67.6438 35.4137 67.2868H34.3427C34.3427 67.3582 34.3427 67.4296 34.3427 67.4296C34.3427 68.2864 35.3423 68.572 36.0562 68.572C37.1986 68.572 37.7698 68.0722 37.7698 67.4296C37.7698 66.7157 37.3414 66.4301 36.1276 66.2159C35.6992 66.1445 35.5565 66.0731 35.5565 65.8589C35.5565 65.6447 35.6993 65.5019 36.0562 65.5019C36.3418 65.5019 36.556 65.5733 36.6274 65.9303H37.6984C37.6984 65.8589 37.6984 65.7875 37.6984 65.7875C37.7698 64.9307 36.8416 64.7165 36.1276 64.7165ZM41.6967 64.7165C40.4116 64.7165 40.0546 65.3591 40.0546 65.8589C40.0546 66.6443 40.6258 66.8585 41.5539 67.0013C42.0537 67.0727 42.2679 67.144 42.2679 67.4296C42.2679 67.6438 42.1251 67.7866 41.6967 67.7866C41.3397 67.7866 41.0541 67.6438 40.9827 67.2868H39.9832C39.9832 67.3582 39.9832 67.4296 39.9832 67.4296C39.9832 68.2864 40.9827 68.572 41.6967 68.572C42.8391 68.572 43.4103 68.0722 43.4103 67.4296C43.4103 66.7157 42.9819 66.4301 41.7681 66.2159C41.3397 66.1445 41.1969 66.0731 41.1969 65.8589C41.1969 65.6447 41.3397 65.5019 41.6967 65.5019C41.9823 65.5019 42.1965 65.5733 42.2679 65.9303H43.3389C43.3389 65.8589 43.3389 65.7875 43.3389 65.7875C43.3389 64.9307 42.4107 64.7165 41.6967 64.7165ZM45.8378 68.5006H46.9802V64.7879H45.8378V68.5006ZM45.7664 63.7169C45.7664 64.0739 46.052 64.3595 46.409 64.3595C46.766 64.3595 47.0516 64.0739 47.0516 63.7169C47.0516 63.3599 46.766 63.0743 46.409 63.0743C46.052 63.0743 45.7664 63.3599 45.7664 63.7169ZM51.4069 64.7165C49.979 64.7165 49.4078 65.5733 49.4078 66.6443C49.4078 67.7152 49.9076 68.572 51.4069 68.572C52.9063 68.572 53.3347 67.5724 53.3347 66.6443C53.3347 65.6447 52.9063 64.7165 51.4069 64.7165ZM51.3355 65.5019C51.9067 65.5019 52.1209 65.9303 52.1209 66.6443C52.1209 67.4296 51.8353 67.7152 51.3355 67.7152C50.7643 67.7152 50.5502 67.3582 50.5502 66.6443C50.5502 65.9303 50.7643 65.5019 51.3355 65.5019ZM57.9042 64.7165C57.5472 64.7165 57.0474 64.7879 56.6904 65.3591H56.619C56.619 65.0735 56.5476 64.9307 56.4762 64.7879H55.4766V68.5006H56.619V66.4301C56.619 66.0017 56.8332 65.5733 57.4044 65.5733C57.8328 65.5733 57.9756 65.8589 57.9756 66.2873V68.5006H59.2608V66.2159C59.2608 65.3591 59.0466 64.7165 57.9042 64.7165ZM65.0441 66.0731C65.0441 65.2877 64.6871 64.7165 63.3305 64.7165C62.6165 64.7165 61.6883 65.0021 61.6883 65.7161C61.6883 65.7875 61.6883 65.7875 61.6883 65.8589H62.6879C62.7593 65.5733 63.0449 65.5019 63.2591 65.5019C63.6161 65.5019 63.8303 65.6447 63.8303 66.0731V66.2159C63.6161 66.2159 63.4733 66.2159 63.2591 66.2159C62.3309 66.2159 61.4027 66.4301 61.4027 67.4296C61.4027 68.215 61.9025 68.572 62.6879 68.572C63.1163 68.572 63.6161 68.3578 63.9017 68.0008H63.9731C63.9731 68.2864 64.0445 68.4292 64.1159 68.5006H65.0441V66.0731ZM63.9017 66.8585V67.0726C63.9017 67.4296 63.6875 67.7866 63.1163 67.7866C62.8307 67.7866 62.6165 67.6438 62.6165 67.3582C62.6165 67.0013 62.9021 66.8585 63.4019 66.8585C63.5447 66.7871 63.7589 66.8585 63.9017 66.8585ZM67.4716 67.4296C67.4716 68.215 67.6858 68.572 68.4712 68.572C68.614 68.572 68.8282 68.572 69.0424 68.5006V67.7152C68.6854 67.7152 68.614 67.6438 68.614 67.3582V63.1457H67.4716V67.4296ZM77.2532 64.7165C76.1108 64.7165 75.3968 65.3591 75.3968 66.6443C75.3968 67.9294 76.0394 68.5006 77.3246 68.5006C78.1814 68.5006 78.9668 68.1436 78.9668 67.2154C78.9668 67.144 78.9668 67.144 78.9668 67.0726H77.8958C77.8244 67.501 77.5388 67.6438 77.2532 67.6438C76.682 67.6438 76.5392 67.2154 76.5392 66.5729C76.5392 66.0017 76.682 65.5019 77.2532 65.5019C77.4674 65.5019 77.8244 65.6447 77.8244 66.0731H78.8954C78.8954 66.0017 78.8954 65.9303 78.8954 65.9303C78.8954 65.1449 78.1814 64.7165 77.2532 64.7165ZM84.6073 66.0731C84.6073 65.2877 84.2503 64.7165 82.8937 64.7165C82.1797 64.7165 81.2515 65.0021 81.2515 65.7161C81.2515 65.7875 81.2515 65.7875 81.2515 65.8589H82.2511C82.3225 65.5733 82.6081 65.5019 82.8223 65.5019C83.1793 65.5019 83.3935 65.6447 83.3935 66.0731V66.2159C83.1793 66.2159 83.0365 66.2159 82.8223 66.2159C81.8941 66.2159 80.9659 66.4301 80.9659 67.4296C80.9659 68.215 81.4657 68.572 82.2511 68.572C82.6795 68.572 83.1793 68.3578 83.4649 68.0008H83.5363C83.5363 68.2864 83.6077 68.4292 83.6791 68.5006H84.6073V66.0731ZM83.4649 66.8585V67.0726C83.4649 67.4296 83.2507 67.7866 82.6795 67.7866C82.3939 67.7866 82.1797 67.6438 82.1797 67.3582C82.1797 67.0013 82.4653 66.8585 82.9651 66.8585C83.1079 66.7871 83.3221 66.8585 83.4649 66.8585ZM89.2482 68.5006C90.4619 68.5006 90.8189 67.5724 90.8189 66.5729C90.8189 65.4305 90.3905 64.6451 89.2482 64.6451C88.7484 64.6451 88.3914 64.7879 88.0344 65.2163H87.963C88.0344 65.0735 88.0344 64.6451 88.0344 64.4309V63.0029H86.892V68.4292H87.8202C87.8916 68.2864 87.963 68.0722 87.963 67.9294H88.0344C88.2486 68.3578 88.7484 68.5006 89.2482 68.5006ZM88.8198 65.5019C89.391 65.5019 89.6051 65.9303 89.6051 66.6443C89.6051 67.4296 89.3196 67.7866 88.8198 67.7866C88.32 67.7866 88.0344 67.4296 88.0344 66.9298V66.5729C88.0344 66.0017 88.2486 65.5019 88.8198 65.5019ZM93.1751 67.4296C93.1751 68.215 93.3893 68.572 94.1747 68.572C94.3175 68.572 94.4603 68.572 94.7458 68.5006V67.7152C94.3889 67.7152 94.3175 67.6438 94.3175 67.3582V63.1457H93.1751V67.4296ZM98.6014 65.5019C99.0298 65.5019 99.244 65.7875 99.244 66.1445H97.9588C97.9588 65.7161 98.2444 65.5019 98.6014 65.5019ZM98.6728 64.7165C97.3876 64.7165 96.8164 65.5733 96.8164 66.7157C96.8164 67.858 97.3876 68.572 98.7442 68.572C99.601 68.572 100.458 68.2864 100.458 67.4296C100.458 67.4296 100.458 67.3582 100.458 67.2868H99.3867C99.3154 67.501 99.1726 67.7866 98.7442 67.7866C98.173 67.7866 97.9588 67.4296 97.9588 66.8585H100.458C100.458 66.7157 100.458 66.6443 100.458 66.5015C100.386 65.5019 99.8865 64.7165 98.6728 64.7165Z" fill="black"/>
</svg>
